<svg width="25" height="22" viewBox="0 0 25 22" fill="none" xmlns="http://www.w3.org/2000/svg">
<path d="M17.75 4.6875V5.6875H18.75H22.6562C23.354 5.6875 24 6.33353 24 7.03125V9.9375H1V7.03125C1 6.33353 1.64603 5.6875 2.34375 5.6875H6.25H7.25V4.6875V2.34375C7.25 1.64603 7.89603 1 8.59375 1H16.4062C17.104 1 17.75 1.64603 17.75 2.34375V4.6875ZM15.625 5.6875H16.625V4.6875V3.125V2.125H15.625H9.375H8.375V3.125V4.6875V5.6875H9.375H15.625ZM14.8438 16.625C15.8277 16.625 16.625 15.8277 16.625 14.8438V13.5H24V19.5312C24 20.229 23.354 20.875 22.6562 20.875H2.34375C1.64603 20.875 1 20.229 1 19.5312V13.5H8.375V14.8438C8.375 15.8277 9.17232 16.625 10.1562 16.625H14.8438Z" fill="white" stroke="black" stroke-width="2"/>
</svg>
